<?xml version="1.0" encoding="UTF-8"?>
<svg version="1.1" xmlns="http://www.w3.org/2000/svg" width="261" height="182">
<path d="M0 0 C86.13 0 172.26 0 261 0 C261 60.06 261 120.12 261 182 C174.87 182 88.74 182 0 182 C0 121.94 0 61.88 0 0 Z " fill="#FEFEFE" transform="translate(0,0)"/>
<path d="M0 0 C0.59039062 0.36867188 1.18078125 0.73734375 1.7890625 1.1171875 C3.1503125 1.9215625 3.1503125 1.9215625 4.5390625 2.7421875 C11.62945021 10.22648564 13.05899379 19.14079439 12.9375 29.0546875 C12.48315759 38.42848883 9.64396653 45.26228347 2.9765625 51.9296875 C-5.14925975 57.50623218 -12.52671655 57.92697917 -22.2109375 57.1171875 C-28.34578798 55.96857253 -32.84670003 53.68441276 -37.2109375 49.1171875 C-38.8199336 46.54704192 -40.04971925 43.9141603 -41.2109375 41.1171875 C-41.6234375 40.2096875 -42.0359375 39.3021875 -42.4609375 38.3671875 C-44.7432156 28.47731575 -43.91667809 17.02016429 -38.5234375 8.3046875 C-29.8325246 -3.66382029 -13.12468286 -7.12763676 0 0 Z " fill="#FC716A" transform="translate(194.2109375,26.8828125)"/>
<path d="M0 0 C7.26 0 14.52 0 22 0 C23.10362325 3.98330997 24.2066233 7.96678242 25.30810547 11.95068359 C25.68210018 13.30266966 26.05644164 14.65455986 26.43115234 16.00634766 C28.36548664 22.98542578 30.29408721 29.96086512 32 37 C34.85959385 30.05649518 36.50539428 23.00828061 38.125 15.6875 C38.64723913 13.35780396 39.17062226 11.02836398 39.6953125 8.69921875 C39.92234863 7.67658936 40.14938477 6.65395996 40.38330078 5.6003418 C41 3 41 3 42 0 C49.26 0 56.52 0 64 0 C64 0.66 64 1.32 64 2 C62.35 2 60.7 2 59 2 C59 19.49 59 36.98 59 55 C60.65 55 62.3 55 64 55 C64 55.66 64 56.32 64 57 C55.75 57 47.5 57 39 57 C39 56.34 39 55.68 39 55 C40.65 55 42.3 55 44 55 C43.67 39.49 43.34 23.98 43 8 C40.25747367 20.00382517 40.25747367 20.00382517 37.51545715 32.00776672 C37.18424103 33.45635724 36.85247842 34.90482287 36.52030945 36.35319519 C35.70615294 39.90366297 34.89649 43.45488067 34.10400391 47.01025391 C33.83894043 48.18894043 33.57387695 49.36762695 33.30078125 50.58203125 C33.07173096 51.61175049 32.84268066 52.64146973 32.60668945 53.70239258 C32 56 32 56 31 57 C29.31391034 57.07205511 27.62499341 57.08386068 25.9375 57.0625 C25.01839844 57.05347656 24.09929687 57.04445312 23.15234375 57.03515625 C22.44207031 57.02355469 21.73179687 57.01195312 21 57 C18.72186668 51.2519931 17.0409936 45.57568903 15.625 39.5625 C13.42687594 30.25143223 10.70859222 21.20921356 8 12 C7.67 26.19 7.34 40.38 7 55 C8.32 55 9.64 55 11 55 C11 55.66 11 56.32 11 57 C7.37 57 3.74 57 0 57 C0 56.34 0 55.68 0 55 C1.32 55 2.64 55 4 55 C4 37.51 4 20.02 4 2 C2.68 2 1.36 2 0 2 C0 1.34 0 0.68 0 0 Z " fill="#FC746C" transform="translate(147,100)"/>
<path d="M0 0 C14.52 0 29.04 0 44 0 C44 5.28 44 10.56 44 16 C43.34 16 42.68 16 42 16 C41.68546875 15.38511719 41.3709375 14.77023438 41.046875 14.13671875 C40.61890625 13.32847656 40.1909375 12.52023438 39.75 11.6875 C39.33234375 10.88699219 38.9146875 10.08648437 38.484375 9.26171875 C36.90346897 6.57384237 36.90346897 6.57384237 33 4 C27.06 3.01 27.06 3.01 21 2 C21 10.25 21 18.5 21 27 C27.40371521 26.2981424 27.40371521 26.2981424 31 25 C32.02281518 22.90280128 32.02281518 22.90280128 32.6875 20.4375 C32.93886719 19.61121094 33.19023438 18.78492187 33.44921875 17.93359375 C33.63097656 17.29550781 33.81273437 16.65742187 34 16 C34.66 16 35.32 16 36 16 C36 24.25 36 32.5 36 41 C35.34 41 34.68 41 34 41 C33.60167969 40.16855469 33.60167969 40.16855469 33.1953125 39.3203125 C32.84210938 38.59585938 32.48890625 37.87140625 32.125 37.125 C31.77695313 36.40570313 31.42890625 35.68640625 31.0703125 34.9453125 C30.03442457 32.84864981 30.03442457 32.84864981 28 31 C25.69 30.67 23.38 30.34 21 30 C21 38.58 21 47.16 21 56 C31.43892295 54.97446295 31.43892295 54.97446295 39 50 C40.90852826 46.76313608 42.51260654 43.44864678 44 40 C44.66 40 45.32 40 46 40 C46 45.94 46 51.88 46 58 C30.82 58 15.64 58 0 58 C0 57.34 0 56.68 0 56 C1.65 56 3.3 56 5 56 C5 38.18 5 20.36 5 2 C3.35 2 1.7 2 0 2 C0 1.34 0 0.68 0 0 Z " fill="#FC6E66" transform="translate(49,25)"/>
<path d="M0 0 C0 -0.66 0 -1.32 0 -2 C0.66 -2 1.32 -2 2 -2 C2 3.94 2 9.88 2 16 C1.34 16 0.68 16 0 16 C-1.33203125 13.98828125 -1.33203125 13.98828125 -2.8125 11.3125 C-6.62900891 4.37213832 -6.62900891 4.37213832 -13.13671875 0.30859375 C-17.17233679 -0.43182543 -19.28455708 -0.41993389 -22.875 1.6875 C-30.19454442 13.09737806 -29.59715258 29.98603665 -26.8125 42.875 C-25.46017519 47.36597633 -24.08645808 50.39952668 -20 53 C-16.33142278 53.50125283 -16.33142278 53.50125283 -13 53 C-11.41596476 51.41596476 -11.78025065 49.7228362 -11.68359375 47.52734375 C-11.62075195 46.17866211 -11.62075195 46.17866211 -11.55664062 44.80273438 C-11.51732422 43.85720703 -11.47800781 42.91167969 -11.4375 41.9375 C-11.37272461 40.5134082 -11.37272461 40.5134082 -11.30664062 39.06054688 C-11.20020724 36.70718647 -11.09818992 34.35371646 -11 32 C-12.65 32 -14.3 32 -16 32 C-16 31.34 -16 30.68 -16 30 C-8.41 30 -0.82 30 7 30 C7 30.66 7 31.32 7 32 C6.01 32 5.02 32 4 32 C4 39.59 4 47.18 4 55 C1.03 54.67 -1.94 54.34 -5 54 C-6.95621222 54.47327715 -8.9131701 54.94845973 -10.84765625 55.50390625 C-19.1803832 57.42451664 -27.5509614 56.12935836 -35 52 C-40.25369263 47.58037901 -44.34818642 41.82532441 -45.28417969 34.89624023 C-45.40181765 32.6302012 -45.41685235 30.3936366 -45.375 28.125 C-45.3586853 26.93028076 -45.3586853 26.93028076 -45.34204102 25.71142578 C-45.09538242 16.6250817 -43.30513852 10.45558571 -36.96484375 3.7265625 C-26.19053909 -5.74111674 -12.76104291 -3.68360001 0 0 Z " fill="#FC7068" transform="translate(88,102)"/>
<path d="M0 0 C8.58 0 17.16 0 26 0 C26 0.66 26 1.32 26 2 C24.68 2 23.36 2 22 2 C25.3 9.59 28.6 17.18 32 25 C37.445 13.615 37.445 13.615 43 2 C40.36 2 37.72 2 35 2 C35 1.34 35 0.68 35 0 C40.61 0 46.22 0 52 0 C52 0.66 52 1.32 52 2 C51.12988281 1.95230469 50.25976562 1.90460938 49.36328125 1.85546875 C44.68511893 3.44745662 43.77818209 5.90563654 41.6105957 10.203125 C41.14097412 11.22921875 40.67135254 12.2553125 40.1875 13.3125 C39.45696411 14.88837891 39.45696411 14.88837891 38.71166992 16.49609375 C33.45179312 28.96719502 33.49566154 41.65809064 34 55 C35.65 55 37.3 55 39 55 C39 55.66 39 56.32 39 57 C30.42 57 21.84 57 13 57 C13 56.34 13 55.68 13 55 C14.65 55 16.3 55 18 55 C18.93799218 36.07531119 15.45964514 22.56590194 6.08569336 6.109375 C5 4 5 4 5 2 C3.35 2 1.7 2 0 2 C0 1.34 0 0.68 0 0 Z " fill="#FC6F68" transform="translate(93,100)"/>
<path d="M0 0 C8.91 0 17.82 0 27 0 C27 0.33 27 0.66 27 1 C25.02 1 23.04 1 21 1 C22.82935251 6.39475032 24.66251207 11.78818561 26.49926758 17.18041992 C27.12402412 19.01632303 27.74772473 20.85258582 28.37036133 22.68920898 C29.26368603 25.32369956 30.16075657 27.95688816 31.05859375 30.58984375 C31.3377916 31.41588608 31.61698944 32.24192841 31.90464783 33.09300232 C32.94237783 36.83407207 32.94237783 36.83407207 35 40 C35.35304199 38.96069336 35.70608398 37.92138672 36.06982422 36.85058594 C37.38270744 32.98811348 38.6993363 29.12692657 40.01708984 25.26611328 C40.58646962 23.59621346 41.15483843 21.92596857 41.72216797 20.25537109 C42.53867124 17.85161977 43.35882411 15.44914033 44.1796875 13.046875 C44.43185028 12.30193787 44.68401306 11.55700073 44.94381714 10.78948975 C46.10284757 7.40831586 47.27400265 4.13687486 49 1 C47.02 1 45.04 1 43 1 C43 0.67 43 0.34 43 0 C46.96 0 50.92 0 55 0 C53.68 0.33 52.36 0.66 51 1 C50.66742188 2.74796875 50.66742188 2.74796875 50.328125 4.53125 C48.73163319 11.70145885 46.1731767 18.5777242 43.75 25.5 C43.25245281 26.93280543 42.75530271 28.36574881 42.25854492 29.79882812 C40.84605599 33.86835477 39.42460873 37.93470252 38 42 C37.63664551 43.03769531 37.27329102 44.07539062 36.89892578 45.14453125 C35.27782012 49.76728641 33.6467507 54.38631871 32 59 C29.36 59 26.72 59 24 59 C23.61328125 57.88882813 23.2265625 56.77765625 22.828125 55.6328125 C22.30219933 54.13016773 21.77615102 52.62756588 21.25 51.125 C20.99734375 50.39796875 20.7446875 49.6709375 20.484375 48.921875 C19.12302285 45.04202136 17.69604618 41.20644909 16.14453125 37.3984375 C14.42365788 33.14691646 12.84704325 28.85139244 11.30859375 24.53125 C10.83399852 23.2057241 10.35938901 21.88020332 9.88476562 20.5546875 C9.15368105 18.51111438 8.42577728 16.46663625 7.70629883 14.41894531 C6.99954978 12.41131334 6.2802543 10.40856193 5.55859375 8.40625 C5.13892334 7.22353516 4.71925293 6.04082031 4.28686523 4.82226562 C3.18083375 1.73999354 3.18083375 1.73999354 0 0 Z " fill="#FC6F67" transform="translate(97,25)"/>
<path d="M0 0 C3.21954645 2.53453657 4.70432435 4.11297305 6 8 C6.12142334 10.95187495 6.18819773 13.87935018 6.203125 16.83203125 C6.20882507 17.70139816 6.21452515 18.57076508 6.22039795 19.46647644 C6.22984278 21.30649602 6.23637988 23.14653248 6.24023438 24.98657227 C6.24992737 27.79148144 6.2809501 30.59565379 6.3125 33.40039062 C6.31903168 35.19009983 6.3242815 36.97981426 6.328125 38.76953125 C6.3404718 39.60410355 6.3528186 40.43867584 6.36553955 41.29853821 C6.34668241 46.2667928 5.80119032 49.71821568 3 54 C-0.70126859 56.46751239 -2.62223532 56.30721156 -7 56 C-9.25 55.4375 -9.25 55.4375 -11 54 C-13.90536022 48.46677038 -14.45576102 43.96923713 -14.43359375 37.77734375 C-14.4388356 36.91363663 -14.44407745 36.0499295 -14.44947815 35.16004944 C-14.45586985 33.34393382 -14.45459852 31.52777664 -14.44604492 29.71166992 C-14.43751323 26.94179487 -14.46636962 24.17396983 -14.49804688 21.40429688 C-14.49965867 19.63281311 -14.49908177 17.86132572 -14.49609375 16.08984375 C-14.50732773 15.26781967 -14.51856171 14.44579559 -14.53013611 13.59886169 C-14.46598011 8.27963021 -13.53960529 5.21640985 -10 1 C-6.78070427 -0.60964787 -3.48112288 -0.60686242 0 0 Z " fill="#FEFDFD" transform="translate(183,26)"/>
<path d="M0 0 C7.26 0 14.52 0 22 0 C22 0.66 22 1.32 22 2 C20.35 2 18.7 2 17 2 C17 19.49 17 36.98 17 55 C18.65 55 20.3 55 22 55 C22 55.66 22 56.32 22 57 C13.75 57 5.5 57 -3 57 C-3 56.34 -3 55.68 -3 55 C-1.35 55 0.3 55 2 55 C2 38.5 2 22 2 5 C1.34 5 0.68 5 0 5 C0 3.35 0 1.7 0 0 Z " fill="#FC6C65" transform="translate(189,100)"/>
<path d="M0 0 C0.66 0 1.32 0 2 0 C2 8.25 2 16.5 2 25 C1.34 25 0.68 25 0 25 C-0.26554687 24.44570312 -0.53109375 23.89140625 -0.8046875 23.3203125 C-1.15789062 22.59585938 -1.51109375 21.87140625 -1.875 21.125 C-2.22304687 20.40570313 -2.57109375 19.68640625 -2.9296875 18.9453125 C-3.96557543 16.84864981 -3.96557543 16.84864981 -6 15 C-8.32275177 14.59952556 -10.65739357 14.2602896 -13 14 C-13 13.01 -13 12.02 -13 11 C-11.906875 10.855625 -10.81375 10.71125 -9.6875 10.5625 C-6.06877013 10.11711896 -6.06877013 10.11711896 -3 9 C-1.97718482 6.90280128 -1.97718482 6.90280128 -1.3125 4.4375 C-1.06113281 3.61121094 -0.80976562 2.78492188 -0.55078125 1.93359375 C-0.36902344 1.29550781 -0.18726562 0.65742187 0 0 Z " fill="#FC7B74" transform="translate(83,41)"/>
<path d="M0 0 C3.96 0 7.92 0 12 0 C10.68 0.33 9.36 0.66 8 1 C7.78601563 2.14339844 7.57203125 3.28679688 7.3515625 4.46484375 C5.67313272 12.01777777 2.92809208 19.27105576 0.375 26.5625 C-0.14629022 28.06299239 -0.66712738 29.56364226 -1.1875 31.06445312 C-2.45311522 34.71147271 -3.72484962 38.35630393 -5 42 C-5.66 41.34 -6.32 40.68 -7 40 C-5.79276192 32.28797253 -3.08379327 25.03026074 -0.5 17.6875 C-0.09652344 16.52154297 0.30695313 15.35558594 0.72265625 14.15429688 C3.98645375 4.79915455 3.98645375 4.79915455 6 1 C4.02 1 2.04 1 0 1 C0 0.67 0 0.34 0 0 Z " fill="#FC7C75" transform="translate(140,25)"/>
<path d="M0 0 C5.61 0 11.22 0 17 0 C17 0.66 17 1.32 17 2 C16.10539062 1.96003906 15.21078125 1.92007813 14.2890625 1.87890625 C10.95543385 2.64121952 10.95543385 2.64121952 9.72558594 4.92529297 C8.51071789 7.56583521 7.42030002 10.22531977 6.375 12.9375 C5.6447898 14.78472756 4.90305661 16.6274525 4.1484375 18.46484375 C3.67156494 19.69642212 3.67156494 19.69642212 3.18505859 20.95288086 C1.77929741 23.38125077 0.58093357 24.0087621 -2 25 C-0.41980408 19.7936703 1.77884995 15.01626689 4.125 10.125 C4.49753906 9.34125 4.87007812 8.5575 5.25390625 7.75 C6.16618997 5.83186501 7.08266984 3.91572671 8 2 C5.36 2 2.72 2 0 2 C0 1.34 0 0.68 0 0 Z " fill="#FC857E" transform="translate(128,100)"/>
<path d="M0 0 C0.66 0.66 1.32 1.32 2 2 C1.81767292 14.60335921 -2.98162322 27.85408593 -6 40 C-8.62164315 36.06753527 -7.88050024 34.56162418 -7 30 C-6.48409141 27.5787112 -5.93984203 25.16333077 -5.37109375 22.75390625 C-5.21713638 22.09792953 -5.06317902 21.44195282 -4.90455627 20.76609802 C-4.41838616 18.69754872 -3.92802062 16.63002148 -3.4375 14.5625 C-3.10453825 13.14915435 -2.7718534 11.73574343 -2.43945312 10.32226562 C-1.62949855 6.88075087 -0.81578164 3.44013877 0 0 Z " fill="#FC837D" transform="translate(188,103)"/>
<path d="M0 0 C1.1484375 1.515625 1.1484375 1.515625 2 4 C1.33388902 6.72236663 0.59992701 9.14527076 -0.375 11.75 C-0.6225 12.44738281 -0.87 13.14476562 -1.125 13.86328125 C-1.73656427 15.58036556 -2.36652005 17.2908796 -3 19 C-3.66 18.34 -4.32 17.68 -5 17 C-4.57388103 11.13173302 -2.16412404 5.4103101 0 0 Z " fill="#FC8881" transform="translate(138,48)"/>
<path d="M0 0 C0.66 0.66 1.32 1.32 2 2 C1.96712417 4.72869407 1.43602229 7.2966618 1 10 C-1.56687367 6.1496895 -0.83288724 4.41430237 0 0 Z " fill="#FC8F89" transform="translate(181,133)"/>
</svg>
